<svg width="20" height="20" viewBox="0 0 17 10" fill="none" xmlns="http://www.w3.org/2000/svg">
<path d="M8.49305 0.0232935C8.3581 0.00885541 8.22181 0 8.08397 0C8.08205 0 8.08128 0 8.08128 0C8.08128 0 8.08128 0 8.07993 0C7.93998 0 7.80253 0.00885541 7.66623 0.0232935C2.47315 0.270858 0 5.00096 0 5.00096C0 5.00096 2.59866 10 8.08147 10C13.562 10 16.1591 5.00116 16.1591 5.00116C16.1591 5.00116 13.6865 0.270858 8.49305 0.0232935ZM6.7599 2.47507C7.35398 2.47507 7.83544 2.95634 7.83544 3.54926C7.83544 4.14353 7.35398 4.62615 6.7599 4.62615C6.1666 4.62615 5.68571 4.14353 5.68571 3.54926C5.68552 2.95634 6.1664 2.47507 6.7599 2.47507ZM8.08147 8.57872C4.59843 8.57872 2.48104 6.2076 1.629 5.00116C2.14088 4.27463 3.1167 3.12613 4.57244 2.32645C4.37955 2.78116 4.27386 3.28206 4.27386 3.80626C4.27386 5.90902 5.97736 7.61348 8.07993 7.61348C10.1831 7.61348 11.887 5.90902 11.887 3.80626C11.887 3.28495 11.7809 2.78732 11.5911 2.33454C13.0405 3.13479 14.0178 4.27983 14.5311 5.00231C13.6794 6.20741 11.5616 8.57872 8.08147 8.57872Z" fill="#898989"/>
</svg>
