<svg width="18" height="19" viewBox="0 0 13 14" fill="none" xmlns="http://www.w3.org/2000/svg">
<path fill-rule="evenodd" clip-rule="evenodd" d="M6.2525 0C8.0025 0 9.42 1.4175 9.42 3.1675C9.42 4.9175 8.0025 6.335 6.2525 6.335C4.5025 6.335 3.085 4.9175 3.085 3.1675C3.085 1.4175 4.5025 0 6.2525 0ZM6.2525 14H6.34C8.875 13.97 11.115 12.7225 12.505 10.8125L12.14 9.2775C12.0225 8.4575 11.49 7.91 10.6125 7.59L8.3275 6.9325C7.045 7.64 5.46 7.64 4.1775 6.9325L1.8925 7.59C1.015 7.91 0.4825 8.4575 0.365 9.2775L0 10.8125C1.39 12.7225 3.63 13.9725 6.165 14H6.2525Z" fill="#898989"/>
</svg>
