<svg width="17" height="16" viewBox="0 0 15 14" fill="none" xmlns="http://www.w3.org/2000/svg">
<path d="M6.97299 1.24822C5.74805 2.47316 5.42311 4.26061 6.00131 5.78132L0.261102 11.5215L0 14L3.27461 13.4392L3.41158 11.9325L4.91833 11.7955L5.05532 10.2888L6.56207 10.1518L8.46691 8.24691C9.98762 8.82513 11.7751 8.50018 13 7.27524C14.6643 5.61094 14.6643 2.91254 13 1.24824C11.3357 -0.416072 8.6373 -0.416082 6.97299 1.24822ZM10.1235 2.48102C10.5774 2.02712 11.3133 2.02713 11.7672 2.48103C12.2211 2.93493 12.2211 3.67086 11.7672 4.12476C11.3133 4.57866 10.5774 4.57865 10.1235 4.12475C9.66957 3.67085 9.66957 2.93492 10.1235 2.48102Z" fill="#898989"/>
</svg>
